HIERARCHY
ROOT root
{
	OFFSET	0	13.1	24.9
	CHANNELS 6  Xposition Yposition Zposition Xrotation Yrotation Zrotation
	JOINT spine_1
	{
		OFFSET	0	9.99999	0
		CHANNELS 3  Xrotation Yrotation Zrotation
		JOINT spine_2
		{
			OFFSET	0	112	-10
			CHANNELS 3  Xrotation Yrotation Zrotation
			JOINT spine_3
			{
				OFFSET	0	206.5	19.3
				CHANNELS 3  Xrotation Yrotation Zrotation
				JOINT spine_4
				{
					OFFSET	0	110.4	14.6
					CHANNELS 3  Xrotation Yrotation Zrotation
					JOINT neck_1
					{
						OFFSET	0	71.8	-50.3
						CHANNELS 3  Xrotation Yrotation Zrotation
						JOINT neck_2
						{
							OFFSET	0	86.2	-25.8
							CHANNELS 3  Xrotation Yrotation Zrotation
							JOINT head_ee
							{
								OFFSET	0	179.8	-8.7
								CHANNELS 3  Xrotation Yrotation Zrotation
								End Site
								{
									OFFSET	1	0	0
								}
							}
						}
					}
					JOINT left_clavicle
					{
						OFFSET	-43.2	22.4	-70.8
						CHANNELS 3  Xrotation Yrotation Zrotation
						JOINT left_shoulder
						{
							OFFSET	-93.9	-5.79999	48.7
							CHANNELS 3  Xrotation Yrotation Zrotation
							JOINT left_elbow
							{
								OFFSET	-291.4	-30.8	15.2
								CHANNELS 3  Xrotation Yrotation Zrotation
								JOINT left_lowarm_twist
								{
									OFFSET	-110.7	-3.89999	13.6
									CHANNELS 3  Xrotation Yrotation Zrotation
									JOINT left_hand
									{
										OFFSET	-110.7	-3.89999	13.6
										CHANNELS 3  Xrotation Yrotation Zrotation
										JOINT left_ee
										{
											OFFSET	-80.8	-5.10001	12.1
											CHANNELS 3  Xrotation Yrotation Zrotation
											End Site
											{
												OFFSET	1	0	0
											}
										}
									}
								}
							}
						}
					}
					JOINT right_clavicle
					{
						OFFSET	43.2	22.4	-70.8
						CHANNELS 3  Xrotation Yrotation Zrotation
						JOINT right_shoulder
						{
							OFFSET	93.9	-5.79999	48.7
							CHANNELS 3  Xrotation Yrotation Zrotation
							JOINT right_elbow
							{
								OFFSET	291.4	-30.8	15.2
								CHANNELS 3  Xrotation Yrotation Zrotation
								JOINT right_lowarm_twist
								{
									OFFSET	110.7	-3.89999	13.6
									CHANNELS 3  Xrotation Yrotation Zrotation
									JOINT right_hand
									{
										OFFSET	110.7	-3.89999	13.6
										CHANNELS 3  Xrotation Yrotation Zrotation
										JOINT right_ee
										{
											OFFSET	80.8	-5.10001	12.1
											CHANNELS 3  Xrotation Yrotation Zrotation
											End Site
											{
												OFFSET	1	0	0
											}
										}
									}
								}
							}
						}
					}
				}
			}
		}
	}
	JOINT left_hip
	{
		OFFSET	-82.8	-127.5	0.300001
		CHANNELS 3  Xrotation Yrotation Zrotation
		JOINT left_knee
		{
			OFFSET	-28.2	-396.7	2.2
			CHANNELS 3  Xrotation Yrotation Zrotation
			JOINT left_ankle
			{
				OFFSET	-11.7	-411.3	35.4
				CHANNELS 3  Xrotation Yrotation Zrotation
				JOINT left_toes
				{
					OFFSET	0	-60	-88.6
					CHANNELS 3  Xrotation Yrotation Zrotation
					JOINT left_foot_ee
					{
						OFFSET	-22.5	-16.5	-42.2
						CHANNELS 3  Xrotation Yrotation Zrotation
						End Site
						{
							OFFSET	1	0	0
						}
					}
				}
			}
		}
	}
	JOINT right_hip
	{
		OFFSET	82.8	-127.5	0.300001
		CHANNELS 3  Xrotation Yrotation Zrotation
		JOINT right_knee
		{
			OFFSET	28.2	-396.7	2.2
			CHANNELS 3  Xrotation Yrotation Zrotation
			JOINT right_ankle
			{
				OFFSET	11.7	-411.3	35.4
				CHANNELS 3  Xrotation Yrotation Zrotation
				JOINT right_toes
				{
					OFFSET	0	-60	-88.6
					CHANNELS 3  Xrotation Yrotation Zrotation
					JOINT right_foot_ee
					{
						OFFSET	22.5	-16.5	-42.2
						CHANNELS 3  Xrotation Yrotation Zrotation
						End Site
						{
							OFFSET	1	0	0
						}
					}
				}
			}
		}
	}
}
MOTION
Frames: 16
Frame Time: 0.02
3305.24 681.107 -1514.62 -0.464161 63.1249 -1.62609 -0.604936 1.33653 3.49644 -0.598822 1.11148 3.57427 -0.523468 0.302579 3.73065 -0.541789 0.887578 3.63627 -22.5772 19.0265 -1.06202 -25.4798 37.0847 9.09751 -0.0 0.0 -0.0 -3.12129 23.394 -1.57612 -24.5295 -12.9214 71.811 0.750423 -20.392 0.13497 22.9516 0.229937 -2.9033 -0.476185 28.6281 8.60288 -0.0 0.0 -0.0 14.4879 26.9824 -29.0215 7.20156 26.9506 -64.6537 2.32017 48.9677 -1.05669 35.561 0.138733 4.4685 4.69901 -7.06129 -36.0677 0.0 0.0 0.0 22.3063 -5.42732 -9.62955 -11.0658 0.295126 1.66996 20.3993 23.7794 -2.90194 -38.1918 0.0 0.0 -0.0 0.0 -0.0 -3.81746 31.0288 0.682038 -36.8903 0.280875 -5.55801 25.7547 -17.9175 3.48537 36.0676 -0.0 -0.0 0.0 0.0 0.0 
3286.23 677.519 -1512.16 1.4292 61.9315 -3.26064 -0.846542 1.39966 3.50316 -0.840481 1.17406 3.58499 -0.760381 0.345887 3.75623 -0.77885 0.934376 3.6547 -20.9944 18.7641 -1.81997 -23.565 36.9868 7.61398 -0.0 0.0 -0.0 -2.76153 24.3985 -0.88853 -24.0419 -12.5282 70.9932 0.882159 -23.6048 0.184335 22.8771 0.231082 -2.89385 -0.443923 28.5705 8.75732 -0.0 0.0 -0.0 14.5233 27.4111 -29.046 7.19087 27.3378 -64.9513 2.2145 47.642 -0.977778 36.1086 0.162483 4.53435 4.3545 -6.00938 -32.9163 0.0 0.0 0.0 22.7228 -5.47654 -9.75814 -18.1446 0.313107 2.75523 24.2959 19.0951 -3.32558 -38.0182 0.0 0.0 -0.0 0.0 -0.0 -7.23913 32.188 2.21319 -36.336 0.250272 -5.47853 24.2006 -18.4759 3.30642 36.7475 -0.0 -0.0 0.0 0.0 0.0 
3271.33 678.347 -1503.86 1.49429 62.9435 -2.75772 -1.09793 1.14338 3.55108 -1.09138 0.915254 3.61653 -1.02668 0.0686392 3.72976 -1.04549 0.656422 3.67227 -19.5429 18.5931 -2.95836 -21.8613 37.2617 5.91167 -0.0 0.0 -0.0 -2.03084 24.4165 0.0966201 -23.6541 -11.6984 70.2874 0.996421 -26.2703 0.232524 22.488 0.236863 -2.84449 -0.538217 27.1362 7.68998 -0.0 0.0 -0.0 14.0898 27.6057 -28.0039 7.09411 26.983 -65.8712 2.10531 46.1975 -0.898019 36.1078 0.162445 4.53425 4.10271 -4.36703 -30.346 0.0 0.0 0.0 24.0286 -5.53862 -9.59957 -21.05 0.281681 3.19986 26.5013 17.8461 -3.57215 -37.6118 0.0 0.0 -0.0 0.0 -0.0 -9.27046 33.9337 2.15814 -34.8673 0.172919 -5.26655 24.1836 -15.6661 3.27506 35.9088 -0.0 -0.0 0.0 0.0 0.0 
3247.74 676.556 -1496.88 3.47831 63.3158 -5.04649 -1.20681 0.966862 3.59647 -1.19991 0.736207 3.6506 -1.14602 -0.121616 3.72202 -1.16505 0.467324 3.6946 -19.2238 17.9683 -2.85553 -21.3016 36.0238 5.5126 -0.0 0.0 -0.0 -2.23621 24.0798 -0.238119 -23.3151 -11.87 70.8623 1.14243 -29.5057 0.300847 22.585 0.235453 -2.8568 -0.434376 27.4595 8.38948 -0.0 0.0 -0.0 13.5036 27.6434 -26.6362 6.3665 27.46 -66.6363 2.00037 44.7337 -0.823207 38.0856 0.253454 4.77018 3.99409 -3.33999 -29.1239 0.0 0.0 0.0 24.3293 -5.03892 -8.33988 -25.8404 0.180783 3.92785 29.1851 13.9385 -3.83482 -37.166 0.0 0.0 -0.0 0.0 -0.0 -11.263 33.0948 3.05763 -35.1035 0.184993 -5.30078 22.3171 -20.2897 3.09749 36.3919 -0.0 -0.0 0.0 0.0 0.0 
3227.87 684.924 -1487.2 3.46751 64.5786 -4.94335 -1.46958 0.843024 3.61779 -1.4625 0.611266 3.66401 -1.41606 -0.264053 3.7052 -1.43506 0.324017 3.70044 -18.9805 17.8407 -2.35294 -20.9538 35.5276 5.7979 -0.0 0.0 -0.0 -1.84078 23.6051 0.218979 -22.3729 -11.7577 70.5547 1.20316 -30.7943 0.331353 22.2406 0.240365 -2.81307 -0.473039 27.0278 8.01017 -0.0 0.0 -0.0 12.8953 27.6008 -25.2384 4.86026 29.3036 -66.1921 1.90926 43.3997 -0.759842 39.0977 0.303164 4.88967 3.89335 -3.28167 -28.3353 0.0 0.0 0.0 24.8193 -2.79616 -7.263 -28.0199 0.114799 4.25581 30.3732 12.2055 -3.95012 -37.2189 0.0 0.0 -0.0 0.0 -0.0 -12.3662 33.7086 3.15342 -34.23 0.141058 -5.17399 20.8962 -23.211 2.95774 34.3793 -0.0 -0.0 0.0 0.0 0.0 
3207.31 690.816 -1477.89 5.52181 67.3417 -6.89106 -1.89974 0.659207 3.65912 -1.89239 0.425195 3.69359 -1.85701 -0.480694 3.68679 -1.87596 0.107182 3.71641 -18.249 17.419 -3.59572 -20.0566 35.3814 4.17197 -0.0 0.0 -0.0 -0.742308 23.0943 1.65088 -21.3053 -10.9143 68.6242 1.30166 -32.8126 0.383272 20.8726 0.257275 -2.63916 -0.570162 26.8071 7.38454 -0.0 0.0 -0.0 12.4034 27.4651 -24.1281 2.52092 28.5715 -65.0492 1.80085 41.7318 -0.686496 42.3863 0.479165 5.27165 3.78438 -0.992714 -26.6201 0.0 0.0 0.0 23.9381 -3.28565 -5.1374 -29.1812 0.0745545 4.42949 31.4583 7.81785 -4.04403 -38.1431 0.0 0.0 -0.0 0.0 -0.0 -11.0923 35.1571 2.13454 -34.1512 0.137188 -5.16251 17.6899 -28.0378 2.60854 38.395 -0.0 -0.0 0.0 0.0 0.0 
3191.65 697.413 -1471.11 4.74258 67.1217 -6.45017 -1.67385 0.756225 3.60267 -1.66678 0.525602 3.64341 -1.62583 -0.35611 3.66384 -1.64449 0.226591 3.67411 -19.8947 16.7109 -2.39122 -21.7302 33.3657 5.46416 -0.0 0.0 -0.0 -0.666922 23.1165 1.75766 -18.4625 -12.0418 67.7814 1.31835 -33.1458 0.392353 19.3652 0.271093 -2.44713 -0.59542 26.3722 7.07327 -0.0 0.0 -0.0 11.9661 27.4155 -23.1369 1.59244 28.1584 -65.4126 1.68898 39.9149 -0.613358 44.8476 0.625117 5.55068 3.4504 -1.84173 -24.4783 0.0 0.0 0.0 23.4262 -1.4682 -5.01667 -29.1672 0.0750634 4.42739 29.4885 4.36706 -3.83507 -38.8218 0.0 0.0 -0.0 0.0 -0.0 -12.1261 36.1321 3.1374 -35.1015 0.184887 -5.30048 20.1087 -29.074 2.95806 39.1743 -0.0 -0.0 0.0 0.0 0.0 
3166.11 694.478 -1469.82 7.47836 71.374 -9.33247 -1.64178 0.575479 3.57904 -1.63472 0.346721 3.60836 -1.60593 -0.520606 3.58742 -1.62389 0.0521085 3.62458 -19.2954 16.8218 -2.43301 -21.0707 33.6122 5.27852 -0.0 0.0 -0.0 -1.08311 23.2298 1.20011 -16.845 -13.0845 65.7288 1.37017 -34.1645 0.421072 17.7659 0.280225 -2.24306 -0.44474 25.312 7.50779 -0.0 0.0 -0.0 11.6363 26.9467 -22.4438 -1.82518 28.5966 -65.6876 1.56222 37.7328 -0.533874 48.2426 0.845887 5.92487 3.22351 -4.28085 -23.7504 0.0 0.0 0.0 22.0753 2.43564 -3.13781 -29.2805 0.0709527 4.44429 30.8881 2.44127 -3.99008 -38.1172 0.0 0.0 -0.0 0.0 -0.0 -11.8702 34.4176 2.12179 -38.6031 0.380297 -5.80174 20.7794 -27.7161 3.02044 40.1076 -0.0 -0.0 0.0 0.0 0.0 
3149.64 700.93 -1468.16 10.1936 70.7836 -12.2514 -1.6162 0.660158 3.55707 -1.60926 0.432624 3.59181 -1.57511 -0.431124 3.59199 -1.59309 0.141191 3.61498 -19.9508 16.4103 -1.93676 -21.6965 32.5618 5.72487 -0.0 0.0 -0.0 -0.798217 23.3858 1.61249 -15.6294 -13.7432 64.125 1.33176 -33.4118 0.399715 16.5212 0.283389 -2.08412 -0.483906 24.8671 7.1123 -0.0 0.0 -0.0 12.0718 27.3452 -23.3861 -3.39003 27.7951 -65.4966 1.41384 35.0044 -0.445863 50.5387 1.00764 6.17034 2.84293 -4.88471 -21.2457 0.0 0.0 0.0 19.704 3.26541 -2.21187 -31.0126 0.00395116 4.70166 30.6731 0.76924 -3.97646 -38.6813 0.0 0.0 -0.0 0.0 -0.0 -10.9006 34.5664 2.64157 -41.1208 0.539605 -6.15445 23.728 -27.3422 3.39745 40.0847 -0.0 -0.0 0.0 0.0 0.0 
3122.26 708.284 -1467.26 12.5168 72.0967 -14.6482 -1.60258 0.722172 3.47646 -1.596 0.499633 3.51531 -1.55848 -0.34671 3.53364 -1.57584 0.215354 3.54406 -19.4452 16.1459 -3.13827 -21.1167 32.6724 4.32614 -0.0 0.0 -0.0 -0.897263 23.6142 1.50773 -14.3367 -14.3311 63.0708 1.34779 -33.7276 0.408577 15.6095 0.283516 -1.96767 -0.504091 24.4239 6.82344 -0.0 0.0 -0.0 11.7335 26.9065 -22.6694 -6.04442 27.5572 -66.4671 1.24489 31.6601 -0.352986 52.1168 1.12449 6.33524 2.54755 -6.49784 -19.7557 0.0 0.0 0.0 17.7893 6.2434 -1.39391 -32.3769 -0.0542913 4.90291 32.8168 0.987364 -4.19647 -38.5052 0.0 0.0 -0.0 0.0 -0.0 -10.3968 34.7254 1.54133 -43.4519 0.700848 -6.47462 24.4251 -26.4188 3.46588 39.8468 -0.0 -0.0 0.0 0.0 0.0 
3107.53 704.43 -1466.44 15.8572 72.4092 -18.4417 -1.6949 0.720609 3.55502 -1.68801 0.493084 3.5936 -1.64977 -0.377402 3.60757 -1.66787 0.196696 3.6219 -19.2602 16.6621 -3.32945 -21.0355 33.7644 4.37003 -0.0 0.0 -0.0 -0.892904 23.1567 1.45172 -11.5984 -14.7248 61.9383 1.35816 -33.9307 0.414352 16.088 0.283681 -2.02879 -0.446087 24.1793 7.05966 -0.0 0.0 -0.0 11.6438 26.1079 -22.5575 -9.02553 28.5931 -66.735 1.24234 31.6076 -0.351648 53.4422 1.22611 6.47123 2.34309 -7.47557 -18.6887 0.0 0.0 0.0 17.4274 8.83887 -1.32551 -32.6018 -0.0643518 4.93595 33.4909 -0.468175 -4.27454 -38.4333 0.0 0.0 -0.0 0.0 -0.0 -12.2507 31.594 3.17868 -43.1596 0.679919 -6.43484 25.163 -25.2887 3.53428 39.7261 -0.0 -0.0 0.0 0.0 0.0 
3087.38 704.923 -1464.12 18.8498 72.8331 -21.8001 -1.56556 0.575183 3.71847 -1.55793 0.337571 3.74748 -1.52857 -0.557602 3.72114 -1.54788 0.0366488 3.76245 -17.332 16.938 -3.62955 -18.8832 34.4995 3.55558 -0.0 0.0 -0.0 -1.00665 22.1407 1.15377 -10.2047 -15.5779 61.0316 1.36694 -34.1017 0.419261 16.2841 0.283601 -2.05383 -0.358692 24.0004 7.49218 -0.0 0.0 -0.0 11.7205 25.9662 -22.7478 -10.4784 29.3472 -67.7344 1.11154 28.8373 -0.285788 54.1509 1.28174 6.54298 2.34333 -8.45715 -19.0381 0.0 0.0 0.0 14.8296 10.0941 -0.303997 -32.667 -0.0672918 4.94552 34.7018 -0.419013 -4.39349 -37.7867 0.0 0.0 -0.0 0.0 -0.0 -12.1385 31.0456 3.50557 -45.3417 0.84109 -6.7293 21.1285 -25.707 3.02866 40.0959 -0.0 -0.0 0.0 0.0 0.0 
3071.13 710.224 -1463.89 20.9028 72.9133 -23.8644 -1.73235 0.515523 3.73503 -1.72463 0.276981 3.76022 -1.69892 -0.630688 3.71734 -1.7182 -0.0361225 3.77022 -18.2794 16.6252 -3.98449 -19.9245 34.0667 3.41139 -0.0 0.0 -0.0 -0.686307 21.0247 1.45899 -7.32907 -16.3289 60.3785 1.38864 -34.5219 0.431494 16.0195 0.283688 -2.02004 -0.405058 23.869 7.17445 -0.0 0.0 -0.0 11.8468 27.1664 -22.8958 -12.1248 29.9809 -67.4571 1.01801 26.7608 -0.242162 54.6134 1.31852 6.58943 2.14949 -8.67465 -17.7875 0.0 0.0 0.0 12.2899 11.8745 0.015749 -32.806 -0.0735974 4.96592 35.5765 -0.854748 -4.48143 -37.782 0.0 0.0 -0.0 0.0 -0.0 -9.37953 31.4063 2.51938 -45.4207 0.847137 -6.73984 26.9391 -23.7902 3.72018 39.7992 -0.0 -0.0 0.0 0.0 0.0 
3048.44 716.931 -1459.56 21.7967 71.5649 -24.6506 -1.81698 0.602915 3.92797 -1.80847 0.351946 3.95831 -1.77546 -0.610488 3.9268 -1.79697 0.0168304 3.97387 -18.0024 16.7734 -3.95258 -19.6363 34.3422 3.4188 -0.0 0.0 -0.0 -0.71729 20.1145 1.29463 -5.52925 -16.853 59.6648 1.40196 -34.7777 0.439069 16.0866 0.283681 -2.02861 -0.395037 23.75 7.18589 -0.0 0.0 -0.0 11.7782 26.9637 -22.7641 -13.9058 30.3058 -67.701 0.966079 25.5738 -0.21926 54.999 1.34947 6.62794 2.09435 -9.08197 -17.5561 0.0 0.0 0.0 9.00949 12.6148 1.18116 -33.2673 -0.0948859 5.03351 36.4015 -0.784683 -4.55888 -37.5358 0.0 0.0 -0.0 0.0 -0.0 -6.88521 30.6114 1.89286 -46.6257 0.941156 -6.89967 26.916 -23.6209 3.71402 39.6901 -0.0 -0.0 0.0 0.0 0.0 
3037.62 722.43 -1459.08 20.9867 70.04 -23.9136 -1.65834 0.479819 3.96783 -1.64961 0.226569 3.99028 -1.62569 -0.729893 3.92959 -1.64722 -0.100645 3.99543 -17.2955 17.0997 -4.44401 -18.9044 35.2518 2.87966 -0.0 0.0 -0.0 -0.726019 19.1335 1.15213 -3.95895 -17.2754 58.7254 1.36152 -33.9962 0.416227 15.8583 0.283665 -1.99945 -0.445947 23.6428 6.85054 -0.0 0.0 -0.0 11.5165 25.1967 -22.3676 -14.9457 30.5964 -67.9974 0.952417 25.2575 -0.213397 55.0335 1.35226 6.63138 2.04343 -9.60064 -17.393 0.0 0.0 0.0 6.84745 14.0842 1.84526 -31.3318 -0.00924594 4.74887 37.0505 1.52924 -4.60324 -36.7363 0.0 0.0 -0.0 0.0 -0.0 -4.92906 30.4441 1.71691 -48.5817 1.10091 -7.15488 26.7302 -25.0558 3.72148 39.781 -0.0 -0.0 0.0 0.0 0.0 
3021.67 722.898 -1456.61 21.6993 67.8788 -24.1955 -1.74535 0.646562 4.02562 -1.73642 0.389307 4.05853 -1.6998 -0.592963 4.03385 -1.7225 0.051001 4.07681 -17.5158 16.9554 -4.24933 -19.123 34.8639 3.06556 -0.0 0.0 -0.0 -0.893984 18.4453 0.807152 -2.86919 -17.673 58.0012 1.41819 -35.0871 0.44836 16.0302 0.283688 -2.02141 -0.391663 23.5904 7.14325 -0.0 0.0 -0.0 11.7127 27.1236 -22.5962 -16.1085 30.8228 -67.7394 0.893487 23.8743 -0.188896 55.3294 1.3762 6.66076 1.92933 -9.73877 -16.6714 0.0 0.0 0.0 5.13013 14.4693 1.46917 -31.6841 -0.0241144 4.80088 36.3247 -0.355589 -4.54813 -37.3234 0.0 0.0 -0.0 0.0 -0.0 -3.97326 30.2438 1.33215 -47.7237 1.02975 -7.04359 26.1797 -24.6172 3.64531 39.6282 -0.0 -0.0 0.0 0.0 0.0 
